<?xml version="1.0" encoding="utf-8"?>
<!-- Generator: Adobe Illustrator 27.8.1, SVG Export Plug-In . SVG Version: 6.00 Build 0)  -->
<svg version="1.1" id="Layer_1" xmlns="http://www.w3.org/2000/svg" xmlns:xlink="http://www.w3.org/1999/xlink" x="0px" y="0px"
	 viewBox="0 0 1341.7 1341.7" style="enable-background:new 0 0 1341.7 1341.7;" xml:space="preserve">
<style type="text/css">
	.st0{fill-rule:evenodd;clip-rule:evenodd;fill:#FFFFFF;}
</style>
<g transform="translate(0, 150.395)">
	<path class="st0" d="M57.5,519.9c-0.3-15.7,2.7-30.9,8.6-45.4c11.6-22.2,23.8-44,36.7-65.6c71.9-122.5,144-245,216.3-367.2
		C344.4,3.8,380-15.9,426-17.4c161.2-0.1,322.5-0.1,483.7-0.2c46.5-0.4,83.3,18,110.2,55.2c83.4,140.8,166.4,281.8,249,423.1
		c15.6,29.7,19.2,60.7,10.9,93.1c-3.3,11.3-8.1,22-14.4,32c-81,138-162.2,275.9-243.6,413.7c-25.5,37.4-61.3,57-107.2,58.8
		c-165.4,0.2-330.9,0-496.3-0.7c-39.8-3.4-71.5-21-95-52.7C239.2,863.3,155.5,721.2,72.3,579C62.3,560.5,57.4,540.8,57.5,519.9
		L57.5,519.9z M665.3,535.8c22.2,15.6,39.1,35.6,50.7,60c49.6,84,99.2,168,148.8,252c5.1,7.9,11.8,14.1,20.2,18.5
		c26.5,9.4,47.1,2.2,61.7-21.7c54.8-92.9,109.3-186.1,163.6-279.3c12.9-30.3,12.8-60.6-0.3-90.8c-55.5-95.1-111.1-190.2-167-285.1
		c-20.2-38.7-52.2-60.7-96.2-65.7c-112.8-0.6-225.6-0.8-338.4-0.7c-42.5-0.1-75.8,17-100.1,51.1C354,265.8,299.8,357.4,245.7,449.1
		c-4.9,8.6-7.4,17.9-7.4,27.8c4.6,26.8,20.9,41.1,48.7,42.9c108.1-0.1,216.2-0.1,324.2-0.1C630.7,520.5,648.7,525.8,665.3,535.8
		L665.3,535.8z"/>
</g>
</svg>
